<svg width="113" height="17" viewBox="0 0 113 17" fill="none" xmlns="http://www.w3.org/2000/svg">
<path fill-rule="evenodd" clip-rule="evenodd" d="M6.7286 8.68985L2.38901 12.9182L2.83972 11.1616L1.58051 10.8385L0.554194 14.8385L0.284912 15.888L1.33764 15.6315L5.4429 14.6315L5.13523 13.3685L3.34117 13.8055L7.41491 9.8362L6.7286 8.68985Z" fill="black"/>
<path d="M16.5788 15H15.96C13.8504 15 11.8957 13.8921 10.8121 12.082L8.36824 8L5.92442 3.91801C4.84076 2.10795 2.88612 1 0.776473 1H0.157715" stroke="black" stroke-width="1.3"/>
<path d="M19.9588 13V4.27273H25.4304V5.40625H21.2756V8.06534H25.1449V9.1946H21.2756V11.8665H25.4815V13H19.9588ZM27.087 13V6.45455H28.3612V13H27.087ZM27.7305 5.4446C27.5089 5.4446 27.3185 5.37074 27.1594 5.22301C27.0032 5.07244 26.9251 4.89347 26.9251 4.68608C26.9251 4.47585 27.0032 4.29687 27.1594 4.14915C27.3185 3.99858 27.5089 3.9233 27.7305 3.9233C27.9521 3.9233 28.141 3.99858 28.2972 4.14915C28.4563 4.29687 28.5359 4.47585 28.5359 4.68608C28.5359 4.89347 28.4563 5.07244 28.2972 5.22301C28.141 5.37074 27.9521 5.4446 27.7305 5.4446ZM32.8196 15.5909C32.2997 15.5909 31.8523 15.5227 31.4773 15.3864C31.1051 15.25 30.8011 15.0696 30.5653 14.8452C30.3295 14.6207 30.1534 14.375 30.0369 14.108L31.1321 13.6562C31.2088 13.7812 31.3111 13.9134 31.4389 14.0526C31.5696 14.1946 31.7457 14.3153 31.9673 14.4148C32.1918 14.5142 32.4801 14.5639 32.8324 14.5639C33.3153 14.5639 33.7145 14.446 34.0298 14.2102C34.3452 13.9773 34.5028 13.6051 34.5028 13.0938V11.8068H34.4219C34.3452 11.946 34.2344 12.1009 34.0895 12.2713C33.9474 12.4418 33.7514 12.5895 33.5014 12.7145C33.2514 12.8395 32.9261 12.902 32.5256 12.902C32.0085 12.902 31.5426 12.7812 31.1278 12.5398C30.7159 12.2955 30.3892 11.9361 30.1477 11.4616C29.9091 10.9844 29.7898 10.3977 29.7898 9.7017C29.7898 9.00568 29.9077 8.40909 30.1435 7.91193C30.3821 7.41477 30.7088 7.03409 31.1236 6.76989C31.5384 6.50284 32.0085 6.36932 32.5341 6.36932C32.9403 6.36932 33.2685 6.4375 33.5185 6.57386C33.7685 6.70739 33.9631 6.86364 34.1023 7.04261C34.2443 7.22159 34.3537 7.37926 34.4304 7.51562H34.5241V6.45455H35.7727V13.1449C35.7727 13.7074 35.642 14.169 35.3807 14.5298C35.1193 14.8906 34.7656 15.1577 34.3196 15.331C33.8764 15.5043 33.3764 15.5909 32.8196 15.5909ZM32.8068 11.8452C33.1733 11.8452 33.483 11.7599 33.7358 11.5895C33.9915 11.4162 34.1847 11.169 34.3153 10.848C34.4489 10.5241 34.5156 10.1364 34.5156 9.68466C34.5156 9.24432 34.4503 8.85653 34.3196 8.52131C34.1889 8.18608 33.9972 7.92472 33.7443 7.73722C33.4915 7.54687 33.179 7.4517 32.8068 7.4517C32.4233 7.4517 32.1037 7.55114 31.848 7.75C31.5923 7.94602 31.3991 8.21307 31.2685 8.55114C31.1406 8.8892 31.0767 9.26705 31.0767 9.68466C31.0767 10.1136 31.142 10.4901 31.2727 10.8139C31.4034 11.1378 31.5966 11.3906 31.8523 11.5724C32.1108 11.7543 32.429 11.8452 32.8068 11.8452ZM40.3026 13.1321C39.6577 13.1321 39.1023 12.9943 38.6364 12.7188C38.1733 12.4403 37.8153 12.0497 37.5625 11.5469C37.3125 11.0412 37.1875 10.4489 37.1875 9.76989C37.1875 9.09943 37.3125 8.50852 37.5625 7.99716C37.8153 7.4858 38.1676 7.08665 38.6193 6.79972C39.0739 6.51278 39.6051 6.36932 40.2131 6.36932C40.5824 6.36932 40.9403 6.4304 41.2869 6.55256C41.6335 6.67472 41.9446 6.86648 42.2202 7.12784C42.4957 7.3892 42.7131 7.72869 42.8722 8.14631C43.0313 8.56108 43.1108 9.06534 43.1108 9.65909V10.1108H37.9077V9.15625H41.8622C41.8622 8.82102 41.794 8.52415 41.6577 8.26562C41.5213 8.00426 41.3295 7.7983 41.0824 7.64773C40.8381 7.49716 40.5511 7.42188 40.2216 7.42188C39.8636 7.42188 39.5511 7.50994 39.2841 7.68608C39.0199 7.85937 38.8153 8.08665 38.6705 8.3679C38.5284 8.64631 38.4574 8.94886 38.4574 9.27557V10.0213C38.4574 10.4588 38.5341 10.831 38.6875 11.1378C38.8438 11.4446 39.0611 11.679 39.3395 11.8409C39.6179 12 39.9432 12.0795 40.3153 12.0795C40.5568 12.0795 40.777 12.0455 40.9759 11.9773C41.1747 11.9062 41.3466 11.8011 41.4915 11.6619C41.6364 11.5227 41.7472 11.3509 41.8239 11.1463L43.0298 11.3636C42.9332 11.7187 42.7599 12.0298 42.5099 12.2969C42.2628 12.5611 41.9517 12.767 41.5767 12.9148C41.2045 13.0597 40.7798 13.1321 40.3026 13.1321ZM45.7987 9.11364V13H44.5245V6.45455H45.7475V7.51989H45.8285C45.979 7.1733 46.2148 6.89489 46.5359 6.68466C46.8597 6.47443 47.2674 6.36932 47.7589 6.36932C48.2049 6.36932 48.5955 6.46307 48.9308 6.65057C49.266 6.83523 49.5259 7.1108 49.7106 7.47727C49.8952 7.84375 49.9876 8.29687 49.9876 8.83665V13H48.7134V8.99006C48.7134 8.51562 48.5898 8.14489 48.3427 7.87784C48.0955 7.60795 47.756 7.47301 47.3242 7.47301C47.0288 7.47301 46.766 7.53693 46.5359 7.66477C46.3086 7.79261 46.1282 7.98011 45.9947 8.22727C45.864 8.47159 45.7987 8.76705 45.7987 9.11364ZM54.6239 13H51.7987V4.27273H54.7134C55.5685 4.27273 56.3029 4.44744 56.9165 4.79688C57.5302 5.14347 58.0004 5.64205 58.3271 6.29261C58.6566 6.94034 58.8214 7.71733 58.8214 8.62358C58.8214 9.53267 58.6552 10.3139 58.3228 10.9673C57.9933 11.6207 57.516 12.1236 56.891 12.4759C56.266 12.8253 55.5103 13 54.6239 13ZM53.1154 11.8494H54.5515C55.2163 11.8494 55.7688 11.7244 56.2092 11.4744C56.6495 11.2216 56.979 10.8565 57.1978 10.3793C57.4165 9.89915 57.5259 9.31392 57.5259 8.62358C57.5259 7.93892 57.4165 7.35795 57.1978 6.88068C56.9819 6.40341 56.6594 6.04119 56.2305 5.79403C55.8015 5.54687 55.2688 5.4233 54.6325 5.4233H53.1154V11.8494ZM60.4588 13V4.27273H63.6548C64.2741 4.27273 64.7869 4.375 65.1932 4.57955C65.5994 4.78125 65.9034 5.0554 66.1051 5.40199C66.3068 5.74574 66.4077 6.13352 66.4077 6.56534C66.4077 6.92898 66.3409 7.2358 66.2074 7.4858C66.0739 7.73295 65.8949 7.93182 65.6705 8.08239C65.4489 8.23011 65.2045 8.33807 64.9375 8.40625V8.49148C65.2273 8.50568 65.5099 8.59943 65.7855 8.77273C66.0639 8.94318 66.294 9.18608 66.4759 9.50142C66.6577 9.81676 66.7486 10.2003 66.7486 10.652C66.7486 11.098 66.6435 11.4986 66.4332 11.8537C66.2259 12.206 65.9048 12.4858 65.4702 12.6932C65.0355 12.8977 64.4801 13 63.804 13H60.4588ZM61.7756 11.8707H63.6761C64.3068 11.8707 64.7585 11.7486 65.0312 11.5043C65.304 11.2599 65.4403 10.9545 65.4403 10.5881C65.4403 10.3125 65.3707 10.0597 65.2315 9.82955C65.0923 9.59943 64.8935 9.41619 64.6349 9.27983C64.3793 9.14347 64.0753 9.07528 63.723 9.07528H61.7756V11.8707ZM61.7756 8.0483H63.5398C63.8352 8.0483 64.1009 7.99148 64.3366 7.87784C64.5753 7.7642 64.7642 7.60511 64.9034 7.40057C65.0455 7.19318 65.1165 6.94886 65.1165 6.66761C65.1165 6.30682 64.9901 6.00426 64.7372 5.75994C64.4844 5.51562 64.0966 5.39347 63.5739 5.39347H61.7756V8.0483Z" fill="black"/>
</svg>
