<svg width="78" height="28" viewBox="0 0 78 28" fill="none" xmlns="http://www.w3.org/2000/svg">
<rect width="78" height="28" fill="black"/>
<path fill-rule="evenodd" clip-rule="evenodd" d="M12.7286 14.6898L8.38901 18.9182L8.83972 17.1616L7.58051 16.8385L6.55419 20.8385L6.28491 21.888L7.33764 21.6315L11.4429 20.6315L11.1352 19.3685L9.34117 19.8055L13.4149 15.8362L12.7286 14.6898Z" fill="white"/>
<path d="M22.5788 21H21.96C19.8504 21 17.8957 19.8921 16.8121 18.082L14.3682 14L11.9244 9.91801C10.8408 8.10795 8.88612 7 6.77647 7H6.15771" stroke="white" stroke-width="1.3"/>
<path d="M26.0568 19V10.2727H31.3239V11.2102H27.1136V14.1591H31.0511V15.0966H27.1136V18.0625H31.392V19H26.0568ZM33.0923 19V12.4545H34.098V19H33.0923ZM33.6037 11.3636C33.4077 11.3636 33.2386 11.2969 33.0966 11.1634C32.9574 11.0298 32.8878 10.8693 32.8878 10.6818C32.8878 10.4943 32.9574 10.3338 33.0966 10.2003C33.2386 10.0668 33.4077 10 33.6037 10C33.7997 10 33.9673 10.0668 34.1065 10.2003C34.2486 10.3338 34.3196 10.4943 34.3196 10.6818C34.3196 10.8693 34.2486 11.0298 34.1065 11.1634C33.9673 11.2969 33.7997 11.3636 33.6037 11.3636ZM38.582 21.5909C38.0962 21.5909 37.6786 21.5284 37.3292 21.4034C36.9798 21.2812 36.6886 21.1193 36.4556 20.9176C36.2255 20.7188 36.0423 20.5057 35.9059 20.2784L36.707 19.7159C36.7979 19.8352 36.913 19.9716 37.0522 20.125C37.1914 20.2812 37.3817 20.4162 37.6232 20.5298C37.8675 20.6463 38.1871 20.7045 38.582 20.7045C39.1104 20.7045 39.5465 20.5767 39.8903 20.321C40.234 20.0653 40.4059 19.6648 40.4059 19.1193V17.7898H40.3207C40.2468 17.9091 40.1417 18.0568 40.0053 18.233C39.8718 18.4062 39.6786 18.5611 39.4258 18.6974C39.1758 18.831 38.8377 18.8977 38.4116 18.8977C37.8832 18.8977 37.4087 18.7727 36.9883 18.5227C36.5707 18.2727 36.2397 17.9091 35.9954 17.4318C35.7539 16.9545 35.6332 16.375 35.6332 15.6932C35.6332 15.0227 35.7511 14.4389 35.9869 13.9418C36.2227 13.4418 36.5508 13.0554 36.9712 12.7827C37.3917 12.5071 37.8775 12.3693 38.4286 12.3693C38.8548 12.3693 39.1928 12.4403 39.4428 12.5824C39.6957 12.7216 39.8888 12.8807 40.0224 13.0597C40.1587 13.2358 40.2638 13.3807 40.3377 13.4943H40.44V12.4545H41.4116V19.1875C41.4116 19.75 41.2837 20.2074 41.0281 20.5597C40.7752 20.9148 40.4343 21.1747 40.0053 21.3395C39.5792 21.5071 39.1048 21.5909 38.582 21.5909ZM38.5479 17.9943C38.9513 17.9943 39.2923 17.902 39.5707 17.7173C39.8491 17.5327 40.0607 17.267 40.2056 16.9205C40.3505 16.5739 40.4229 16.1591 40.4229 15.6761C40.4229 15.2045 40.3519 14.7884 40.2099 14.4276C40.0678 14.0668 39.8576 13.7841 39.5792 13.5795C39.3008 13.375 38.957 13.2727 38.5479 13.2727C38.1218 13.2727 37.7667 13.3807 37.4826 13.5966C37.2013 13.8125 36.9897 14.1023 36.8477 14.4659C36.7085 14.8295 36.6388 15.233 36.6388 15.6761C36.6388 16.1307 36.7099 16.5327 36.8519 16.8821C36.9968 17.2287 37.2099 17.5014 37.4911 17.7003C37.7752 17.8963 38.1275 17.9943 38.5479 17.9943ZM45.9968 19.1364C45.3661 19.1364 44.8221 18.9972 44.3647 18.7188C43.9102 18.4375 43.5593 18.0455 43.3121 17.5426C43.0678 17.0369 42.9457 16.4489 42.9457 15.7784C42.9457 15.108 43.0678 14.517 43.3121 14.0057C43.5593 13.4915 43.9031 13.0909 44.3434 12.804C44.7866 12.5142 45.3036 12.3693 45.8945 12.3693C46.2354 12.3693 46.5721 12.4261 46.9045 12.5398C47.2369 12.6534 47.5394 12.8381 47.8121 13.0938C48.0849 13.3466 48.3022 13.6818 48.4641 14.0994C48.6261 14.517 48.707 15.0312 48.707 15.642V16.0682H43.6616V15.1989H47.6843C47.6843 14.8295 47.6104 14.5 47.4627 14.2102C47.3178 13.9205 47.1104 13.6918 46.8406 13.5241C46.5735 13.3565 46.2582 13.2727 45.8945 13.2727C45.494 13.2727 45.1474 13.3722 44.8548 13.571C44.565 13.767 44.342 14.0227 44.1857 14.3381C44.0295 14.6534 43.9513 14.9915 43.9513 15.3523V15.9318C43.9513 16.4261 44.0366 16.8452 44.207 17.1889C44.3803 17.5298 44.6204 17.7898 44.9272 17.9688C45.234 18.1449 45.5906 18.233 45.9968 18.233C46.261 18.233 46.4996 18.196 46.7127 18.1222C46.9286 18.0455 47.1147 17.9318 47.271 17.7812C47.4272 17.6278 47.5479 17.4375 47.6332 17.2102L48.6048 17.483C48.5025 17.8125 48.3306 18.1023 48.0891 18.3523C47.8477 18.5994 47.5494 18.7926 47.1942 18.9318C46.8391 19.0682 46.44 19.1364 45.9968 19.1364ZM51.2425 15.0625V19H50.2369V12.4545H51.2085V13.4773H51.2937C51.4471 13.1449 51.68 12.8778 51.9925 12.6761C52.305 12.4716 52.7085 12.3693 53.2028 12.3693C53.646 12.3693 54.0337 12.4602 54.3661 12.642C54.6985 12.821 54.957 13.0938 55.1417 13.4602C55.3263 13.8239 55.4187 14.2841 55.4187 14.8409V19H54.413V14.9091C54.413 14.3949 54.2795 13.9943 54.0124 13.7074C53.7454 13.4176 53.3789 13.2727 52.913 13.2727C52.592 13.2727 52.305 13.3423 52.0522 13.4815C51.8022 13.6207 51.6048 13.8239 51.4599 14.0909C51.315 14.358 51.2425 14.6818 51.2425 15.0625ZM60.0859 19H57.3928V10.2727H60.2053C61.0518 10.2727 61.7763 10.4474 62.3786 10.7969C62.9808 11.1435 63.4425 11.642 63.7635 12.2926C64.0845 12.9403 64.245 13.7159 64.245 14.6193C64.245 15.5284 64.0831 16.3111 63.7592 16.9673C63.4354 17.6207 62.9638 18.1236 62.3445 18.4759C61.7251 18.8253 60.9723 19 60.0859 19ZM58.4496 18.0625H60.0178C60.7393 18.0625 61.3374 17.9233 61.8118 17.6449C62.2862 17.3665 62.6399 16.9702 62.8729 16.456C63.1058 15.9418 63.2223 15.3295 63.2223 14.6193C63.2223 13.9148 63.1072 13.3082 62.8771 12.7997C62.647 12.2884 62.3033 11.8963 61.8459 11.6236C61.3885 11.348 60.8189 11.2102 60.1371 11.2102H58.4496V18.0625ZM66.0178 19V10.2727H69.0689C69.6768 10.2727 70.1783 10.3778 70.5732 10.5881C70.968 10.7955 71.2621 11.0753 71.4553 11.4276C71.6484 11.777 71.745 12.1648 71.745 12.5909C71.745 12.9659 71.6783 13.2756 71.5447 13.5199C71.4141 13.7642 71.2408 13.9574 71.0249 14.0994C70.8118 14.2415 70.5803 14.3466 70.3303 14.4148V14.5C70.5973 14.517 70.8658 14.6108 71.1357 14.7812C71.4055 14.9517 71.6314 15.196 71.8132 15.5142C71.995 15.8324 72.0859 16.2216 72.0859 16.6818C72.0859 17.1193 71.9865 17.5128 71.7876 17.8622C71.5888 18.2116 71.2749 18.4886 70.8459 18.6932C70.4169 18.8977 69.8587 19 69.1712 19H66.0178ZM67.0746 18.0625H69.1712C69.8615 18.0625 70.3516 17.929 70.6413 17.6619C70.9339 17.392 71.0803 17.0653 71.0803 16.6818C71.0803 16.3864 71.005 16.1136 70.8544 15.8636C70.7038 15.6108 70.4893 15.4091 70.2109 15.2585C69.9325 15.1051 69.603 15.0284 69.2223 15.0284H67.0746V18.0625ZM67.0746 14.108H69.0348C69.353 14.108 69.6399 14.0455 69.8956 13.9205C70.1541 13.7955 70.3587 13.6193 70.5092 13.392C70.6626 13.1648 70.7393 12.8977 70.7393 12.5909C70.7393 12.2074 70.6058 11.8821 70.3388 11.6151C70.0717 11.3452 69.6484 11.2102 69.0689 11.2102H67.0746V14.108Z" fill="white"/>
</svg>
