<svg width="67" height="17" viewBox="0 0 67 17" fill="none" xmlns="http://www.w3.org/2000/svg">
<path fill-rule="evenodd" clip-rule="evenodd" d="M6.7286 8.68985L2.38901 12.9182L2.83972 11.1616L1.58051 10.8385L0.554194 14.8385L0.284912 15.888L1.33764 15.6315L5.4429 14.6315L5.13523 13.3685L3.34117 13.8055L7.41491 9.8362L6.7286 8.68985Z" fill="white"/>
<path d="M16.5788 15H15.96C13.8504 15 11.8957 13.8921 10.8121 12.082L8.36824 8L5.92442 3.91801C4.84076 2.10795 2.88612 1 0.776473 1H0.157715" stroke="white" stroke-width="1.3"/>
<path d="M20.0568 13V4.27273H25.3239V5.21023H21.1136V8.15909H25.0511V9.09659H21.1136V12.0625H25.392V13H20.0568ZM27.0923 13V6.45455H28.098V13H27.0923ZM27.6037 5.36364C27.4077 5.36364 27.2386 5.29688 27.0966 5.16335C26.9574 5.02983 26.8878 4.86932 26.8878 4.68182C26.8878 4.49432 26.9574 4.33381 27.0966 4.20028C27.2386 4.06676 27.4077 4 27.6037 4C27.7997 4 27.9673 4.06676 28.1065 4.20028C28.2486 4.33381 28.3196 4.49432 28.3196 4.68182C28.3196 4.86932 28.2486 5.02983 28.1065 5.16335C27.9673 5.29688 27.7997 5.36364 27.6037 5.36364ZM32.582 15.5909C32.0962 15.5909 31.6786 15.5284 31.3292 15.4034C30.9798 15.2812 30.6886 15.1193 30.4556 14.9176C30.2255 14.7188 30.0423 14.5057 29.9059 14.2784L30.707 13.7159C30.7979 13.8352 30.913 13.9716 31.0522 14.125C31.1914 14.2812 31.3817 14.4162 31.6232 14.5298C31.8675 14.6463 32.1871 14.7045 32.582 14.7045C33.1104 14.7045 33.5465 14.5767 33.8903 14.321C34.234 14.0653 34.4059 13.6648 34.4059 13.1193V11.7898H34.3207C34.2468 11.9091 34.1417 12.0568 34.0053 12.233C33.8718 12.4062 33.6786 12.5611 33.4258 12.6974C33.1758 12.831 32.8377 12.8977 32.4116 12.8977C31.8832 12.8977 31.4087 12.7727 30.9883 12.5227C30.5707 12.2727 30.2397 11.9091 29.9954 11.4318C29.7539 10.9545 29.6332 10.375 29.6332 9.69318C29.6332 9.02273 29.7511 8.43892 29.9869 7.94176C30.2227 7.44176 30.5508 7.0554 30.9712 6.78267C31.3917 6.5071 31.8775 6.36932 32.4286 6.36932C32.8548 6.36932 33.1928 6.44034 33.4428 6.58239C33.6957 6.72159 33.8888 6.88068 34.0224 7.05966C34.1587 7.2358 34.2638 7.38068 34.3377 7.49432H34.44V6.45455H35.4116V13.1875C35.4116 13.75 35.2837 14.2074 35.0281 14.5597C34.7752 14.9148 34.4343 15.1747 34.0053 15.3395C33.5792 15.5071 33.1048 15.5909 32.582 15.5909ZM32.5479 11.9943C32.9513 11.9943 33.2923 11.902 33.5707 11.7173C33.8491 11.5327 34.0607 11.267 34.2056 10.9205C34.3505 10.5739 34.4229 10.1591 34.4229 9.67614C34.4229 9.20455 34.3519 8.78835 34.2099 8.42756C34.0678 8.06676 33.8576 7.78409 33.5792 7.57955C33.3008 7.375 32.957 7.27273 32.5479 7.27273C32.1218 7.27273 31.7667 7.38068 31.4826 7.59659C31.2013 7.8125 30.9897 8.10227 30.8477 8.46591C30.7085 8.82955 30.6388 9.23295 30.6388 9.67614C30.6388 10.1307 30.7099 10.5327 30.8519 10.8821C30.9968 11.2287 31.2099 11.5014 31.4911 11.7003C31.7752 11.8963 32.1275 11.9943 32.5479 11.9943ZM39.9968 13.1364C39.3661 13.1364 38.8221 12.9972 38.3647 12.7188C37.9102 12.4375 37.5593 12.0455 37.3121 11.5426C37.0678 11.0369 36.9457 10.4489 36.9457 9.77841C36.9457 9.10795 37.0678 8.51705 37.3121 8.00568C37.5593 7.49148 37.9031 7.09091 38.3434 6.80398C38.7866 6.5142 39.3036 6.36932 39.8945 6.36932C40.2354 6.36932 40.5721 6.42614 40.9045 6.53977C41.2369 6.65341 41.5394 6.83807 41.8121 7.09375C42.0849 7.34659 42.3022 7.68182 42.4641 8.09943C42.6261 8.51705 42.707 9.03125 42.707 9.64205V10.0682H37.6616V9.19886H41.6843C41.6843 8.82955 41.6104 8.5 41.4627 8.21023C41.3178 7.92045 41.1104 7.69176 40.8406 7.52415C40.5735 7.35653 40.2582 7.27273 39.8945 7.27273C39.494 7.27273 39.1474 7.37216 38.8548 7.57102C38.565 7.76705 38.342 8.02273 38.1857 8.33807C38.0295 8.65341 37.9513 8.99148 37.9513 9.35227V9.93182C37.9513 10.4261 38.0366 10.8452 38.207 11.1889C38.3803 11.5298 38.6204 11.7898 38.9272 11.9688C39.234 12.1449 39.5906 12.233 39.9968 12.233C40.261 12.233 40.4996 12.196 40.7127 12.1222C40.9286 12.0455 41.1147 11.9318 41.271 11.7812C41.4272 11.6278 41.5479 11.4375 41.6332 11.2102L42.6048 11.483C42.5025 11.8125 42.3306 12.1023 42.0891 12.3523C41.8477 12.5994 41.5494 12.7926 41.1942 12.9318C40.8391 13.0682 40.44 13.1364 39.9968 13.1364ZM45.2425 9.0625V13H44.2369V6.45455H45.2085V7.47727H45.2937C45.4471 7.14489 45.68 6.87784 45.9925 6.67614C46.305 6.47159 46.7085 6.36932 47.2028 6.36932C47.646 6.36932 48.0337 6.46023 48.3661 6.64205C48.6985 6.82102 48.957 7.09375 49.1417 7.46023C49.3263 7.82386 49.4187 8.28409 49.4187 8.84091V13H48.413V8.90909C48.413 8.39489 48.2795 7.99432 48.0124 7.70739C47.7454 7.41761 47.3789 7.27273 46.913 7.27273C46.592 7.27273 46.305 7.34233 46.0522 7.48153C45.8022 7.62074 45.6048 7.82386 45.4599 8.09091C45.315 8.35795 45.2425 8.68182 45.2425 9.0625ZM54.0859 13H51.3928V4.27273H54.2053C55.0518 4.27273 55.7763 4.44744 56.3786 4.79688C56.9808 5.14347 57.4425 5.64205 57.7635 6.29261C58.0845 6.94034 58.245 7.71591 58.245 8.61932C58.245 9.52841 58.0831 10.3111 57.7592 10.9673C57.4354 11.6207 56.9638 12.1236 56.3445 12.4759C55.7251 12.8253 54.9723 13 54.0859 13ZM52.4496 12.0625H54.0178C54.7393 12.0625 55.3374 11.9233 55.8118 11.6449C56.2862 11.3665 56.6399 10.9702 56.8729 10.456C57.1058 9.94176 57.2223 9.32955 57.2223 8.61932C57.2223 7.91477 57.1072 7.30824 56.8771 6.79972C56.647 6.28835 56.3033 5.89631 55.8459 5.62358C55.3885 5.34801 54.8189 5.21023 54.1371 5.21023H52.4496V12.0625ZM60.0178 13V4.27273H63.0689C63.6768 4.27273 64.1783 4.37784 64.5732 4.58807C64.968 4.79545 65.2621 5.07528 65.4553 5.42756C65.6484 5.77699 65.745 6.16477 65.745 6.59091C65.745 6.96591 65.6783 7.27557 65.5447 7.51989C65.4141 7.7642 65.2408 7.95739 65.0249 8.09943C64.8118 8.24148 64.5803 8.34659 64.3303 8.41477V8.5C64.5973 8.51705 64.8658 8.6108 65.1357 8.78125C65.4055 8.9517 65.6314 9.19602 65.8132 9.5142C65.995 9.83239 66.0859 10.2216 66.0859 10.6818C66.0859 11.1193 65.9865 11.5128 65.7876 11.8622C65.5888 12.2116 65.2749 12.4886 64.8459 12.6932C64.4169 12.8977 63.8587 13 63.1712 13H60.0178ZM61.0746 12.0625H63.1712C63.8615 12.0625 64.3516 11.929 64.6413 11.6619C64.9339 11.392 65.0803 11.0653 65.0803 10.6818C65.0803 10.3864 65.005 10.1136 64.8544 9.86364C64.7038 9.6108 64.4893 9.40909 64.2109 9.25852C63.9325 9.10511 63.603 9.02841 63.2223 9.02841H61.0746V12.0625ZM61.0746 8.10795H63.0348C63.353 8.10795 63.6399 8.04545 63.8956 7.92045C64.1541 7.79545 64.3587 7.61932 64.5092 7.39205C64.6626 7.16477 64.7393 6.89773 64.7393 6.59091C64.7393 6.20739 64.6058 5.8821 64.3388 5.61506C64.0717 5.34517 63.6484 5.21023 63.0689 5.21023H61.0746V8.10795Z" fill="white"/>
</svg>
